<svg width="88" height="88" viewBox="0 0 88 88" fill="none" xmlns="http://www.w3.org/2000/svg">
<g filter="url(#filter0_d)">
<path d="M30.3023 27.3198L31.4614 25.1047C30.6864 24.6992 29.7559 24.7282 29.0077 25.1811C28.2594 25.6341 27.8023 26.4451 27.8023 27.3198H30.3023ZM30.3023 46.6802H27.8023C27.8023 47.5649 28.2699 48.3837 29.0318 48.8333C29.7938 49.2829 30.7366 49.2964 31.511 48.8686L30.3023 46.6802ZM48.3023 36.7384L49.511 38.9268C50.3166 38.4818 50.8125 37.6304 50.8022 36.7102C50.7918 35.79 50.2767 34.9499 49.4614 34.5233L48.3023 36.7384ZM61.5 37C61.5 50.531 50.531 61.5 37 61.5V66.5C53.2924 66.5 66.5 53.2924 66.5 37H61.5ZM37 61.5C23.469 61.5 12.5 50.531 12.5 37H7.5C7.5 53.2924 20.7076 66.5 37 66.5V61.5ZM12.5 37C12.5 23.469 23.469 12.5 37 12.5V7.5C20.7076 7.5 7.5 20.7076 7.5 37H12.5ZM37 12.5C50.531 12.5 61.5 23.469 61.5 37H66.5C66.5 20.7076 53.2924 7.5 37 7.5V12.5ZM27.8023 27.3198V46.6802H32.8023V27.3198H27.8023ZM31.511 48.8686L49.511 38.9268L47.0936 34.55L29.0936 44.4918L31.511 48.8686ZM49.4614 34.5233L31.4614 25.1047L29.1433 29.5348L47.1433 38.9535L49.4614 34.5233Z" fill="#00BBF0"/>
</g>
<defs>
<filter id="filter0_d" x="0.5" y="0.5" width="87" height="87" filterUnits="userSpaceOnUse" color-interpolation-filters="sRGB">
<feFlood flood-opacity="0" result="BackgroundImageFix"/>
<feColorMatrix in="SourceAlpha" type="matrix" values="0 0 0 0 0 0 0 0 0 0 0 0 0 0 0 0 0 0 127 0"/>
<feMorphology radius="2" operator="dilate" in="SourceAlpha" result="effect1_dropShadow"/>
<feOffset dx="7" dy="7"/>
<feGaussianBlur stdDeviation="6"/>
<feColorMatrix type="matrix" values="0 0 0 0 0 0 0 0 0 0.12549 0 0 0 0 0.290196 0 0 0 0.18 0"/>
<feBlend mode="normal" in2="BackgroundImageFix" result="effect1_dropShadow"/>
<feBlend mode="normal" in="SourceGraphic" in2="effect1_dropShadow" result="shape"/>
</filter>
</defs>
</svg>
